<svg width="100" height="146" viewBox="0 0 100 146" fill="none" xmlns="http://www.w3.org/2000/svg">
<g id="_x37_">
<g id="Group">
<g id="Group_2">
<path id="Vector" d="M8.7793 107.416C12.8839 106.518 16.9886 105.492 21.0932 104.594H77.2756C81.5085 105.492 85.6132 106.262 89.8461 107.16C86.3828 126.785 83.0478 146.282 79.5845 165.907H19.554C15.9625 146.41 12.3709 126.913 8.7793 107.416Z" fill="white"/>
</g>
<g id="Group_3">
<path id="Vector_2" d="M72.2748 152.952H28.1499C26.3541 152.952 24.9431 151.541 24.9431 149.745V138.457C24.9431 136.662 26.3541 135.251 28.1499 135.251H72.2748C74.0706 135.251 75.4816 136.662 75.4816 138.457V149.745C75.3533 151.541 73.9424 152.952 72.2748 152.952Z" fill="white"/>
</g>
<g id="Group_4">
<path id="Vector_3" d="M72.2735 153.85H28.1485C25.9679 153.85 24.0439 152.054 24.0439 149.745V138.457C24.0439 136.277 25.8397 134.353 28.1485 134.353H72.2735C74.4541 134.353 76.3782 136.148 76.3782 138.457V149.745C76.25 152.054 74.4541 153.85 72.2735 153.85ZM28.0203 136.148C26.7376 136.148 25.7115 137.174 25.7115 138.457V149.745C25.7115 151.028 26.7376 152.054 28.0203 152.054H72.1453C73.428 152.054 74.4542 151.028 74.4542 149.745V138.457C74.4542 137.174 73.428 136.148 72.1453 136.148H28.0203Z" fill="#0F79FF"/>
</g>
<g id="Group_5">
<path id="Vector_4" d="M23.4031 115.497C23.4031 115.497 11.9871 67.7802 17.5027 57.262C23.0183 46.7438 81.1247 47.3852 84.2032 55.9793C87.2817 64.5734 74.7111 115.625 74.7111 115.625H23.4031V115.497Z" fill="white"/>
</g>
<g id="Group_6">
<path id="Vector_5" d="M79.5854 166.805H19.5549C19.1701 166.805 18.7853 166.548 18.6571 166.035L7.88234 107.544C7.75407 107.031 8.13888 106.646 8.52369 106.518L19.9398 103.824C16.3482 85.9946 13.0132 63.8039 16.733 56.6207C20.5811 49.1811 45.722 47.5136 62.3972 48.668C70.0934 49.1811 83.4334 50.7203 84.9727 55.4663C87.025 61.2385 82.5355 84.7119 78.1743 103.824L89.847 106.261C90.3601 106.39 90.6166 106.774 90.4884 107.287L80.2267 166.035C80.4833 166.42 80.0985 166.805 79.5854 166.805ZM20.3245 165.009H78.8157L88.8208 107.929L77.1482 105.492C76.8917 105.492 76.7634 105.363 76.6351 105.107C76.5069 104.85 76.5069 104.722 76.5069 104.466C82.5356 78.0419 84.9727 60.4689 83.5617 56.236C82.9204 54.3119 76.8917 51.6182 62.5254 50.5921C43.6697 49.3094 21.4789 51.8748 18.5287 57.6469C15.835 62.906 17.1178 79.9659 22.1203 104.466C22.2486 104.979 21.8638 105.363 21.4789 105.492L10.0629 108.185L20.3245 165.009Z" fill="#0F79FF"/>
</g>
<g id="Group_7">
<path id="Vector_6" d="M29.3036 165.907H18.0159C14.8092 157.441 5.44539 134.224 4.80404 132.044C0.31458 118.062 0.699359 114.471 2.36687 111.905C4.93228 108.057 10.7045 106.133 14.9374 107.801C16.4767 108.442 21.4792 110.751 25.9686 136.277C27.3796 143.588 28.7905 153.722 29.3036 165.907Z" fill="white"/>
</g>
<g id="Group_8">
<path id="Vector_7" d="M29.3034 166.805H18.0157C17.6309 166.805 17.3742 166.548 17.246 166.292C15.835 162.7 13.2696 156.158 10.8324 150.001C7.49742 141.536 4.41906 133.711 3.90598 132.428C-0.583472 118.319 -0.326994 114.471 1.59706 111.52C4.29073 107.287 10.5759 105.235 15.1937 107.031C19.8114 108.827 23.6595 118.575 26.8662 136.148C28.662 145.897 29.6883 155.902 30.2014 166.035C30.2014 166.292 30.073 166.548 29.9447 166.677C29.8165 166.677 29.5599 166.805 29.3034 166.805ZM18.6571 165.009H28.4056C27.8925 155.26 26.8663 145.64 25.1988 136.276C22.2486 119.858 18.5287 109.981 14.6806 108.442C10.7042 106.903 5.4451 108.698 3.13624 112.162C1.597 114.599 1.46873 118.319 5.70164 131.659C6.08645 132.813 9.29327 141.151 12.5 149.104C14.8089 155.132 17.2461 161.289 18.6571 165.009Z" fill="#0F79FF"/>
</g>
<g id="Group_9">
<path id="Vector_8" d="M70.7354 165.907H82.023C85.2298 157.441 94.5936 134.224 95.2349 132.044C99.7244 118.062 99.3396 114.47 97.6721 111.905C95.1067 108.057 89.3345 106.133 85.1015 107.8C83.5623 108.442 78.5598 110.751 74.0703 136.276C72.6594 143.588 71.2484 153.721 70.7354 165.907Z" fill="white"/>
</g>
<g id="Group_10">
<path id="Vector_9" d="M82.0223 166.805H70.7347C70.4781 166.805 70.2216 166.677 70.0933 166.549C69.965 166.421 69.8367 166.164 69.8367 165.907C70.3498 155.774 71.376 145.769 73.1718 136.021C76.3786 118.448 80.2266 108.699 84.8444 106.903C89.4621 105.107 95.7473 107.16 98.441 111.393C100.365 114.343 100.493 118.191 96.1321 132.301C95.7472 133.583 92.5406 141.536 89.3338 149.874C86.8967 156.159 84.3313 162.572 82.9203 166.164C82.6638 166.549 82.2789 166.805 82.0223 166.805ZM71.6325 165.01H81.381C82.792 161.29 85.2292 155.133 87.538 149.232C90.7448 141.28 93.9516 132.942 94.3364 131.788C98.5693 118.448 98.441 114.728 96.9018 112.291C94.5929 108.699 89.3339 107.031 85.3575 108.571C81.5094 109.982 77.7895 119.858 74.8392 136.405C73.1717 145.641 72.1456 155.261 71.6325 165.01Z" fill="#0F79FF"/>
</g>
</g>
<g id="Group_11">
<path id="Vector_10" d="M26.7383 66.2405C31.0995 64.7012 36.4868 63.4185 42.9003 62.7772C55.086 61.6227 65.2193 63.8034 71.6328 65.8557C71.248 69.9603 70.6066 77.9131 69.837 88.303C68.5543 104.593 68.9391 107.672 65.9889 110.109C63.9366 111.905 43.2851 111.648 34.4345 111.392C32.1256 111.392 30.3299 109.596 30.2017 107.415L26.7383 66.2405Z" fill="white"/>
</g>
<g id="Group_12">
<path id="Vector_11" d="M62.5256 47.7701C61.3711 46.8722 60.4732 47.8984 60.0884 48.5398C60.0884 46.1026 59.9602 44.8199 59.0623 43.409C57.3948 40.8436 54.4446 40.2022 53.4184 39.9456C48.2876 38.7912 44.1829 41.8697 43.5415 42.2545C43.1567 44.1786 42.9002 45.7178 42.7719 46.744C42.6437 47.5136 42.6437 48.1549 42.5155 48.7963C42.5155 48.7963 41.4893 46.2309 39.8218 47.5136C38.1543 48.7963 38.2825 52.7727 42.5155 53.2858C42.6437 53.7988 42.772 54.4402 43.0286 54.9533C43.6699 56.3642 44.5678 57.2621 44.9526 57.6469C45.594 58.2883 46.3635 59.1862 47.9027 59.8275C48.5441 60.2123 50.2117 60.7254 52.1357 60.7254C56.2404 60.4689 58.5492 57.1339 58.6775 56.8773C59.4471 55.7229 59.8319 54.5685 59.9602 53.2858C63.9365 52.9009 64.0648 49.0528 62.5256 47.7701Z" fill="white"/>
</g>
<g id="Group_13">
<path id="Vector_12" d="M46.2347 111.777C42.13 111.777 37.897 111.777 34.5619 111.648C32.1248 111.648 30.2008 109.724 29.9443 107.415L26.3528 66.1124L26.6093 65.9841C31.8683 64.1883 37.3839 63.0339 42.8995 62.5208C52.5198 61.6229 62.2683 62.6491 71.7603 65.5993L72.0169 65.7276V65.9841C71.3756 73.4238 70.8625 80.8634 70.2211 88.4314C69.9646 91.125 69.8363 93.4339 69.708 95.4862C68.9384 105.876 68.8102 108.313 66.2448 110.494C64.8338 111.52 55.4701 111.777 46.2347 111.777ZM26.9941 66.4972L30.4574 107.415C30.5856 109.468 32.3814 111.135 34.4337 111.135C52.6481 111.52 64.449 111.007 65.7317 109.852C68.0405 107.928 68.2971 105.491 68.9384 95.2297C69.0667 93.1774 69.195 90.8685 69.4515 88.1748C69.9646 80.7352 70.606 73.2955 71.2473 65.9841C61.8836 63.0339 52.3915 62.136 42.7713 63.0339C37.5122 63.547 32.1249 64.7014 26.9941 66.4972Z" fill="black"/>
</g>
<g id="Group_14">
<path id="Vector_13" d="M50.8516 53.4137C49.6971 53.4137 49.5689 53.1572 49.4406 53.0289C49.4406 53.0289 49.3122 52.9006 49.3122 52.7724C49.0557 52.0027 49.8254 48.9242 50.3384 47.385C49.5688 47.0002 48.7992 46.7437 47.9013 46.7437C46.2338 46.6154 44.9512 47.2567 44.3098 47.6415C44.0533 47.7698 43.6683 47.7698 43.5401 47.385C43.4118 47.1285 43.4119 46.7437 43.7967 46.6154C45.0794 45.8458 46.6185 45.5892 48.0295 45.5892C49.184 45.7175 50.3385 46.1023 51.3647 46.6154C51.6212 46.7437 51.6211 47.0002 51.6211 47.2567C51.1081 49.1808 50.595 51.3614 50.4667 52.131C50.8515 52.131 51.4929 52.131 52.7756 52.0027C53.0322 52.0027 53.417 52.131 53.417 52.5158C53.417 52.7724 53.1604 53.1572 52.9039 53.1572C51.8777 53.2854 51.2364 53.4137 50.8516 53.4137Z" fill="#11040E"/>
</g>
<g id="Group_15">
<path id="Vector_14" d="M46.363 51.1055C44.952 51.1055 44.1823 50.2076 44.1823 50.2076C43.9257 49.9511 44.0541 49.5663 44.3107 49.438C44.5672 49.3097 44.952 49.3097 45.0803 49.5663C45.0803 49.5663 46.1064 50.7207 48.287 49.438C48.5436 49.3097 48.9283 49.438 49.0566 49.6946C49.1849 49.9511 49.0567 50.3359 48.8001 50.4642C47.9022 50.9773 47.0043 51.1055 46.363 51.1055Z" fill="#11040E"/>
</g>
<g id="Group_16">
<path id="Vector_15" d="M55.2151 51.1053C53.8041 51.1053 53.0344 50.2074 53.0344 50.2074C52.7778 49.9508 52.9061 49.566 53.1626 49.4378C53.4192 49.3095 53.8041 49.3095 53.9324 49.566C53.9324 49.566 54.9585 50.7205 57.1391 49.4378C57.3957 49.3095 57.7804 49.4378 57.9087 49.6943C58.037 49.9509 57.9086 50.3357 57.6521 50.4639C56.7542 50.977 55.9847 51.1053 55.2151 51.1053Z" fill="#11040E"/>
</g>
<g id="Group_17">
<path id="Vector_16" d="M51.4943 56.749C49.6985 56.749 48.6723 55.338 48.544 55.2097C48.4157 54.9532 48.4157 54.5684 48.6722 54.4401C48.9288 54.3118 49.3137 54.3118 49.442 54.5684C49.442 54.5684 50.3398 55.8511 51.7507 55.5945C52.7769 55.4663 53.4183 54.6966 53.5466 54.5684C53.6748 54.3118 54.0596 54.3118 54.3161 54.4401C54.5727 54.5684 54.5726 54.9532 54.4444 55.2097C54.1878 55.5945 53.29 56.6207 51.7507 56.749C51.6225 56.749 51.4943 56.749 51.4943 56.749Z" fill="#11040E"/>
</g>
<g id="Group_18">
<path id="Vector_17" d="M59.0611 48.0268C58.9329 48.0268 58.9328 48.0268 58.8045 47.8985C56.1108 46.4876 53.1606 47.1289 53.1606 47.1289C52.904 47.2572 52.5192 47.0006 52.5192 46.7441C52.3909 46.4875 52.6476 46.1027 52.9041 46.1027C53.0324 46.1027 56.3674 45.2048 59.4458 46.8724C59.7024 47.0006 59.8307 47.3854 59.7025 47.642C59.4459 47.8985 59.1894 48.0268 59.0611 48.0268Z" fill="#11040E"/>
</g>
<g id="Group_19">
<path id="Vector_18" d="M51.6225 61.4951C49.8267 61.4951 48.4157 60.982 47.6461 60.5972C46.1069 59.8276 45.209 58.9297 44.5676 58.2883C44.1828 57.9035 43.1567 56.8773 42.5153 55.3381C42.2588 54.825 42.1305 54.4402 42.0022 53.9271C40.0781 53.5423 38.7954 52.3879 38.2823 50.8487C37.8975 49.4377 38.4107 47.8984 39.3086 47.1288C39.9499 46.6157 40.5913 46.6157 41.1044 46.744C41.4892 46.8723 41.7457 47.0006 42.0022 47.2571C42.0022 47.1288 42.0022 46.8723 42.1304 46.744C42.2587 45.2048 42.5152 43.6655 42.9 42.1263C42.9 41.998 43.0284 41.8698 43.1567 41.7415C43.9263 41.1001 48.1592 38.0216 53.5465 39.3043C54.8292 39.5609 57.9076 40.3305 59.5752 43.0242C60.3448 44.1786 60.4731 45.333 60.6014 47.0005C60.8579 46.8723 60.9862 46.744 61.2427 46.744C61.7558 46.6157 62.269 46.744 62.9103 47.2571C63.9365 48.0267 64.3212 49.4377 63.9364 50.8487C63.5516 52.3879 62.2689 53.5423 60.4731 53.9271C60.2166 55.3381 59.8318 56.3643 59.1904 57.3904C59.0622 57.5187 56.4968 61.1103 52.1356 61.4951C51.879 61.4951 51.7507 61.4951 51.6225 61.4951ZM40.7195 47.8985C40.5912 47.8985 40.3347 47.8985 40.0781 48.155C39.4368 48.6681 39.1803 49.6942 39.4368 50.5921C39.8216 51.8748 40.8478 52.6444 42.5153 52.901C42.7719 52.901 42.9002 53.1575 43.0284 53.4141C43.1567 53.9271 43.2848 54.4402 43.5414 54.9533C44.1827 56.236 45.0806 57.2622 45.4654 57.5187C45.9785 58.0318 46.8765 58.9297 48.1592 59.571C48.9289 59.9558 50.3398 60.4689 52.0073 60.3407C55.8554 60.0841 58.0359 56.8774 58.1642 56.7491C58.8056 55.7229 59.1904 54.6968 59.3187 53.4141C59.3187 53.1575 59.5752 52.901 59.8318 52.901C61.371 52.6444 62.5254 51.7465 62.7819 50.5921C63.0384 49.6942 62.7819 48.6681 62.1406 48.155C61.7557 47.8985 61.4992 47.8985 61.4992 47.8985C61.2427 47.8985 60.8579 48.2833 60.6014 48.7963C60.4731 49.0529 60.2166 49.1811 59.96 49.0529C59.7035 49.0529 59.5752 48.7963 59.5752 48.5398C59.5752 46.2309 59.4469 44.9482 58.6773 43.7938C57.2664 41.4849 54.5727 40.8436 53.4183 40.587C48.8006 39.5609 45.2089 41.8697 44.1827 42.6394C43.9262 44.0503 43.6697 45.4613 43.4131 46.8723C43.2849 47.6419 43.2849 48.2832 43.1567 48.9246C43.1567 49.1811 42.9001 49.4377 42.5153 49.4377C42.2588 49.4377 42.1305 49.3094 42.0022 49.0529C41.8739 48.7963 41.4891 47.8984 40.8477 47.7702C40.8477 47.8984 40.7195 47.8985 40.7195 47.8985Z" fill="#11040E"/>
</g>
<g id="Group_20">
<path id="Vector_19" d="M55.5982 43.2811C55.5982 43.2811 52.0066 47.6423 45.3365 44.4355C44.9517 44.5638 44.1821 44.9486 43.5407 45.59C42.3863 47.0009 42.5147 48.5402 42.5147 48.925C42.1298 48.4119 41.8732 48.0271 41.4884 47.514C41.4884 47.514 40.2057 44.9486 40.334 41.2288C40.4622 37.5089 42.5146 36.098 44.6952 36.6111C44.6952 36.6111 44.9518 34.3022 48.9282 33.1478C52.9045 31.9933 61.1138 30.4541 60.4725 39.6895C60.4725 39.6895 64.0641 41.2288 61.6269 47.2575C61.1139 47.7706 60.6007 48.2836 59.9594 48.7967C59.9594 48.4119 60.0877 46.4878 58.5484 44.8203C57.394 43.6659 55.983 43.4094 55.5982 43.2811Z" fill="#11040E"/>
</g>
<g id="Group_21">
<path id="Vector_20" d="M44.5678 34.6863C44.5678 34.6863 46.4919 31.7361 43.1569 30.4534C43.2852 30.4534 40.3349 34.3015 44.5678 34.6863Z" fill="#11040E"/>
</g>
<g id="Group_22">
<path id="Vector_21" d="M64.8351 35.9693C64.7068 35.9693 64.4502 35.841 64.322 35.7128C64.0654 35.328 59.0629 27.1187 63.0393 24.0402C64.322 23.014 64.8349 22.1161 64.7067 21.2182C64.4501 19.9355 62.6544 18.5246 59.8325 17.6267C50.084 14.4199 45.9793 8.9043 47.7751 1.07982C47.9033 0.823281 48.1599 0.566736 48.4164 0.695006C48.673 0.823277 48.9296 1.07982 48.8013 1.33636C47.1338 8.51949 50.9818 13.522 60.089 16.6005C63.424 17.6267 65.3481 19.2942 65.7329 21.09C65.8612 21.9878 65.7329 23.5271 63.6806 25.0663C60.9869 27.1187 63.9371 33.1474 65.2198 35.328C65.3481 35.5845 65.3481 35.9693 65.0915 36.0976C65.0915 35.9693 64.9633 35.9693 64.8351 35.9693Z" fill="#11040E"/>
</g>
<g id="Group_23">
<path id="Vector_22" d="M34.9469 46.1029C34.8186 46.1029 34.5621 45.9746 34.4338 45.8463C30.9705 40.7155 32.8946 37.2522 38.6668 31.0952C39.6929 29.9408 40.2059 29.0429 40.2059 28.145C40.0777 26.7341 38.4102 25.5796 36.6145 24.0404C34.3056 22.2446 31.3553 20.064 30.4574 16.6007C29.8161 14.0353 29.9444 11.8547 30.9705 10.059C32.6381 7.36528 35.7165 6.59564 35.8447 6.59564C36.1013 6.46737 36.4861 6.72392 36.4861 6.98046C36.6143 7.237 36.3579 7.62181 36.1014 7.62181C36.1014 7.62181 33.4076 8.26316 31.9966 10.572C31.0987 12.1113 30.9705 14.0353 31.6119 16.2159C32.5098 19.2944 35.0752 21.3467 37.3841 23.0142C39.4364 24.5535 41.3604 25.9644 41.4886 27.8885C41.6169 29.0429 40.9755 30.3256 39.6928 31.7366C33.6641 38.1501 32.7663 40.9721 35.5882 44.9484C35.7165 45.205 35.7165 45.5898 35.46 45.718C35.2035 46.1029 35.0752 46.1029 34.9469 46.1029Z" fill="#11040E"/>
</g>
<g id="Group_24">
<path id="Vector_23" d="M64.8346 41.8695C64.7063 41.8695 64.4498 41.7413 64.3215 41.613C64.0649 41.3564 64.1932 40.9716 64.4497 40.8434C66.2455 39.4324 67.2716 38.0214 67.2716 36.6105C67.2716 35.8408 67.0151 35.1995 66.6303 34.4299C66.1172 33.4037 65.6042 32.2493 65.7324 30.3252C65.7324 29.8121 65.8607 29.0425 66.2455 28.0164C66.6304 27.2467 67.0152 26.7336 67.4 26.2206C67.6565 25.964 68.0413 25.5792 68.2978 25.0661C69.1957 23.7834 69.5805 23.1421 69.837 22.5007C70.2218 21.218 69.8371 20.3201 68.9392 18.5244C68.4261 17.6265 67.9131 16.472 67.4 14.9328C66.5021 12.3674 66.5021 10.1868 67.4 8.13448C68.9392 4.92773 72.2743 3.64503 72.5308 3.64503C72.7873 3.51676 73.1721 3.64501 73.3004 4.02982C73.4287 4.28636 73.3003 4.67118 72.9155 4.79945C72.9155 4.79945 69.837 5.95388 68.4261 8.64756C67.6564 10.3151 67.6564 12.2391 68.4261 14.548C68.9392 15.959 69.4523 17.1134 69.9654 18.0113C70.8633 19.8071 71.5046 21.0898 70.8632 22.7573C70.6067 23.5269 70.0936 24.1682 69.1957 25.5792C68.8108 26.0923 68.5544 26.4771 68.1696 26.7337C67.7848 27.2467 67.3999 27.5033 67.1434 28.1446C66.7586 28.9142 66.7587 29.6839 66.7587 30.0687C66.6304 31.6079 67.1434 32.6341 67.5282 33.6602C67.9131 34.4299 68.2978 35.3278 68.2978 36.3539C68.2978 38.0214 67.1434 39.8172 65.0911 41.4847C65.0911 41.8695 64.9629 41.8695 64.8346 41.8695Z" fill="#11040E"/>
</g>
<g id="Group_25">
<path id="Vector_24" d="M78.9437 35.9692C78.9437 35.9692 78.0457 33.6603 76.2499 33.9169C74.5824 34.1734 77.5326 42.1262 77.5326 42.1262C77.5326 42.1262 82.2786 38.9194 83.8179 36.0975C85.3571 33.2755 80.8678 31.4797 78.9437 35.9692Z" fill="#0F79FF"/>
</g>
<g id="Group_26">
<path id="Vector_25" d="M24.3017 35.4566C24.3017 35.4566 21.3516 31.865 18.6579 34.687C15.9643 37.5089 27.5085 43.2811 27.5085 43.2811C27.5085 43.2811 30.4588 34.687 29.6891 31.7368C28.9195 28.7865 23.9169 29.8127 24.3017 35.4566Z" fill="#0F79FF"/>
</g>
<g id="Group_27">
<path id="Vector_26" d="M31.6112 110.238C30.072 111.136 28.5327 112.29 27.25 113.958C24.6846 117.164 23.9151 120.884 23.7868 124.091C23.6585 128.452 27.25 132.172 31.6112 132.172H66.6289C71.1183 132.172 74.71 128.452 74.4535 123.963C74.3252 119.73 73.4272 115.112 70.9901 113.829C66.1158 111.264 64.7049 109.981 60.7285 110.109C56.7521 110.494 31.6112 110.238 31.6112 110.238Z" fill="#11040E"/>
</g>
<g id="Group_28">
<path id="Vector_27" d="M67.5274 64.8298C67.5274 64.8298 77.1477 65.2146 79.0718 74.9632C81.1241 84.7117 93.951 98.6932 90.2312 104.594C86.5114 110.494 75.6084 108.57 69.5797 101.13C63.6793 93.6906 56.1114 69.7041 67.5274 64.8298Z" fill="white"/>
</g>
<g id="Group_29">
<path id="Vector_28" d="M29.0471 122.039C30.8429 119.858 33.6647 118.704 36.4867 118.832C38.6673 118.96 41.1045 119.473 43.2851 121.013C47.7745 124.219 48.8007 129.991 49.5703 142.562C50.0834 150.258 50.4682 160.135 50.2117 171.808C49.1855 171.294 47.9028 170.781 46.4918 170.653C43.7981 170.397 39.3087 170.91 32.2539 173.603C30.4581 166.164 29.3036 159.75 28.4058 155.004C27.1231 147.18 28.2775 151.669 26.9948 129.991C26.8665 128.452 26.7382 125.245 28.6622 122.424C28.7905 122.295 28.9188 122.167 29.0471 122.039Z" fill="#11040E"/>
</g>
<g id="Group_30">
<path id="Vector_29" d="M71.2479 122.039C69.4522 119.858 66.6302 118.704 63.8082 118.832C61.6276 118.96 59.1904 119.473 57.0098 121.013C52.5204 124.219 51.4943 129.991 50.7247 142.562C50.2116 150.258 49.8268 160.135 50.0834 171.808C51.1095 171.294 52.3921 170.781 53.8031 170.653C56.4967 170.397 60.9863 170.91 68.0412 173.603C69.837 166.164 70.9914 159.75 71.8893 155.004C73.172 147.18 72.0175 151.669 73.3002 129.991C73.4285 128.452 73.5567 125.245 71.6327 122.424C71.5044 122.295 71.3762 122.167 71.2479 122.039Z" fill="#11040E"/>
</g>
<g id="Group_31">
<path id="Vector_30" d="M30.5847 65.5991C30.5847 65.5991 20.9644 65.9839 19.0404 75.6042C16.988 85.2245 4.16109 98.8211 7.88093 104.593C11.6008 110.365 22.5037 108.441 28.5324 101.13C34.4328 93.9468 42.0007 70.4734 30.5847 65.5991Z" fill="white"/>
</g>
<g id="Group_32">
<path id="Vector_31" d="M46.3624 112.033C42.5143 112.033 38.4095 112.033 34.5614 111.905C31.996 111.905 29.9438 109.853 29.6873 107.416L29.1742 101.259C29.0459 101.387 28.9177 101.515 28.9177 101.644C25.1978 106.133 19.2974 108.955 14.2948 108.698C11.2164 108.57 8.7792 107.287 7.36822 105.107C5.05936 101.387 8.65096 95.23 12.3708 88.6882C14.9362 84.1988 17.6298 79.5811 18.5277 75.6047C19.6821 70.0891 23.2737 67.3954 26.2239 66.241C26.2239 66.1127 26.3522 65.8562 26.6087 65.8562C31.8678 64.0604 37.3834 62.9059 42.899 62.3929C51.6214 61.495 60.3438 62.2646 68.9379 64.5735C71.6316 65.0865 78.0451 67.0106 79.7126 74.9633C80.4823 78.9397 83.1758 83.6857 85.8695 88.3034C89.7176 94.9735 93.1809 101.259 90.8721 104.979C89.4611 107.159 87.0239 108.57 83.9455 108.698C78.9429 108.955 73.1708 106.261 69.5793 101.772C69.0662 106.903 68.5531 108.827 66.5007 110.494C64.9615 111.777 56.1109 112.033 46.3624 112.033ZM29.559 99.0781H29.6873C29.9438 99.0781 30.072 99.3347 30.072 99.5912L30.7133 107.287C30.8416 109.211 32.5091 110.751 34.4332 110.751C52.391 111.136 64.3202 110.622 65.6029 109.596C67.3987 108.057 67.9117 106.39 68.4248 100.104C68.4248 99.8478 68.5531 99.7195 68.8097 99.5912C69.0662 99.5912 69.3228 99.5912 69.451 99.8478C69.7076 100.104 69.8358 100.489 70.0924 100.746C73.5557 104.979 79.0712 107.672 83.8172 107.416C85.7413 107.287 88.3068 106.646 89.846 104.209C91.7701 101.002 88.435 94.9735 84.8434 88.6882C82.1498 84.0705 79.456 79.1963 78.6864 75.0916C77.1472 67.7802 71.2468 65.9844 68.8097 65.5996C60.3438 63.2908 51.6215 62.5211 43.0274 63.419C37.7683 63.9321 32.3809 65.0865 27.3783 66.7541C27.3783 66.8823 27.2502 67.0106 26.9936 67.1389C24.1717 68.165 20.7083 70.4739 19.5539 75.8612C18.656 79.9659 15.9623 84.7119 13.2686 89.2013C9.67706 95.4866 6.21373 101.387 8.26605 104.465C9.80529 106.903 12.3708 107.416 14.2948 107.544C19.0408 107.801 24.5564 105.235 28.0197 101.002C28.4045 100.489 28.7893 99.976 29.1742 99.463C29.1742 99.2064 29.4308 99.0781 29.559 99.0781Z" fill="#11040E"/>
</g>
<g id="Group_33">
<path id="Vector_32" d="M43.2854 88.3036C39.1808 88.3036 33.1521 81.7618 32.2542 78.8116C31.6129 77.7854 30.9714 75.8614 32.6389 74.5787C33.152 74.1939 34.05 74.4504 35.3327 75.3483C38.2829 77.5289 45.3377 85.0968 44.5681 87.534C44.5681 87.6622 44.3116 88.3036 43.2854 88.3036C43.4137 88.3036 43.4137 88.3036 43.2854 88.3036ZM33.2803 75.4766C31.9976 76.3745 33.0238 78.042 33.152 78.1702L33.2803 78.2985C34.0499 81.1205 39.9504 87.0209 43.2854 87.0209C43.2854 87.0209 43.2854 87.0209 43.4137 87.0209C43.5419 87.0209 43.5419 87.0209 43.5419 87.0209C43.6702 86.8926 43.4137 85.7382 41.3614 82.9162C38.1546 78.8116 34.1782 75.4766 33.2803 75.4766Z" fill="#11040E"/>
</g>
<g id="Group_34">
<path id="Vector_33" d="M69.9648 64.7019C69.9648 64.7019 68.2972 61.7517 65.7318 62.9061C63.1664 63.9323 65.4753 66.1128 65.7318 67.5238C65.9884 68.9348 65.7319 74.8352 69.3235 75.6048C72.7868 76.2462 73.1716 69.5761 69.9648 64.7019Z" fill="white"/>
</g>
<g id="Group_35">
<path id="Vector_34" d="M28.9183 87.0204C28.5335 87.0204 28.2769 86.7638 28.4052 86.379L29.4313 76.3739C29.4313 76.1174 29.6878 75.8608 30.0726 75.8608C30.3291 75.8608 30.5857 76.1174 30.5857 76.5022L29.5597 86.5073C29.4314 86.7638 29.1748 87.0204 28.9183 87.0204Z" fill="#11040E"/>
</g>
<g id="Group_36">
<path id="Vector_35" d="M68.2963 87.5338C68.0398 87.5338 67.7832 87.2773 67.7832 87.0208L67.1418 78.5549C67.1418 78.2984 67.3984 77.9136 67.655 77.9136C67.9115 77.9136 68.2963 78.1701 68.2963 78.4266L68.9377 86.8925C68.9377 87.2773 68.6811 87.5338 68.2963 87.5338Z" fill="#11040E"/>
</g>
<g id="Group_37">
<path id="Vector_36" d="M71.247 84.8401C69.5795 84.8401 67.9119 84.7118 66.5009 84.1987C65.3465 84.0704 64.0638 83.8139 63.9355 82.916C63.8073 82.1464 64.7052 81.6333 65.09 81.3768C67.014 80.3506 80.8672 76.8873 83.0478 78.9396C83.4326 79.3244 83.5608 79.8375 83.3043 80.3506C82.0216 83.0443 76.5061 84.8401 71.247 84.8401ZM65.09 82.7877C65.3465 82.916 65.9878 83.0443 66.6292 83.0443H66.7576C72.5297 84.7118 80.9956 82.5312 82.15 79.9658C81.3804 78.6831 68.6816 80.8637 65.6031 82.4029C65.3466 82.6595 65.2183 82.7877 65.09 82.7877Z" fill="#11040E"/>
</g>
<g id="Group_38">
<g id="Group_39">
<g id="Group_40">
<path id="Vector_37" d="M39.5647 76.6298C41.617 76.8864 44.5673 77.2712 48.2872 77.3995C56.753 77.656 64.5774 76.5016 64.7056 74.9623C64.7056 74.8341 64.7057 74.4492 64.4492 74.0644C63.9361 73.4231 63.0381 73.5514 62.7816 73.5514C63.4229 73.8079 64.0644 73.5514 64.4492 73.1665C64.7057 72.7817 64.8339 72.2687 64.7056 71.8838C64.4491 71.1142 63.2947 70.7294 61.8838 70.986C61.8838 70.986 62.2685 70.3446 62.012 69.7033C61.7555 69.0619 60.9858 68.9336 60.0879 68.6771C59.4466 68.5488 58.5488 68.4206 57.2661 68.6771C57.1378 68.5488 57.1377 68.2923 56.8812 68.0357C56.2398 67.3944 55.0855 67.5227 53.418 67.9075C52.2635 68.164 50.7243 68.5488 49.0567 69.0619C43.9259 68.2923 39.693 69.3184 38.6669 71.499C38.0255 72.91 38.1538 74.1927 38.1538 74.1927C38.282 75.4754 39.1799 76.3733 39.5647 76.6298Z" fill="white"/>
</g>
<path id="Vector_38" d="M52.7777 73.0386C50.8536 72.269 51.2384 72.782 47.0055 71.7559C44.4401 71.1145 42.3878 70.3449 40.592 71.2428C40.2072 71.3711 39.9506 71.6276 39.694 71.7559C38.6679 72.6538 38.1548 74.0648 38.4113 75.3475C39.0527 77.6563 42.5161 78.2977 44.3119 78.4259C46.1077 78.5542 48.0316 78.0411 48.0316 78.0411C49.4426 77.7846 50.4688 77.2715 51.6232 77.6563C51.7515 77.6563 52.2646 77.9129 52.9059 78.1694C53.6755 78.5542 53.8038 78.6825 54.3169 78.8107C55.0865 79.1956 56.1127 79.5804 56.754 79.1956C57.3954 78.8108 57.5236 77.9129 57.5236 77.2715C57.3953 74.9626 54.1886 73.5517 52.7777 73.0386Z" fill="white"/>
</g>
<g id="Group_41">
<path id="Vector_39" d="M56.1113 74.5784C55.8547 74.5784 55.5981 74.3219 55.5981 74.0653C55.5981 73.8088 55.8547 73.424 56.1113 73.424L63.4226 72.9109C63.8074 72.9109 64.0639 73.1674 64.0639 73.424C64.0639 73.6805 63.8075 74.0653 63.551 74.0653L56.1113 74.5784Z" fill="#11040E"/>
</g>
<g id="Group_42">
<path id="Vector_40" d="M54.8293 72.0126C54.5727 72.0126 54.3162 71.756 54.3162 71.4995C54.3162 71.243 54.5727 70.8581 54.8293 70.8581L62.3972 70.2168C62.7821 70.2168 63.0386 70.4733 63.0386 70.7299C63.0386 70.9864 62.782 71.3712 62.5255 71.3712L54.8293 72.0126Z" fill="#11040E"/>
</g>
<g id="Group_43">
<path id="Vector_41" d="M53.6752 69.9604C53.4187 69.9604 53.1621 69.7039 53.1621 69.4473C53.1621 69.1908 53.2904 68.806 53.6752 68.806L58.6778 67.9081C58.9343 67.9081 59.3191 68.0364 59.3191 68.4212C59.3191 68.6777 59.1908 69.0625 58.806 69.0625L53.6752 69.9604Z" fill="#11040E"/>
</g>
<g id="Group_44">
<path id="Vector_42" d="M57.6509 77.9134C57.3944 77.9134 57.2662 77.7851 57.138 77.6568C57.138 77.6568 54.316 72.6543 49.6982 73.1674C49.3134 73.1674 49.0569 72.9108 49.0569 72.6543C49.0569 72.3978 49.3135 72.0129 49.57 72.0129C54.9573 71.4999 57.9075 76.8872 58.0358 77.1438C58.1641 77.4003 58.0359 77.7851 57.7793 77.9134H57.6509Z" fill="#11040E"/>
</g>
<g id="Group_45">
<path id="Vector_43" d="M32.127 78.8114C34.1793 76.5025 36.2315 74.3219 38.2838 72.0131C40.3362 74.3219 42.3885 76.5025 44.4409 78.8114L42.1319 87.2772C42.2602 87.2772 32.127 83.6856 32.127 78.8114Z" fill="white"/>
</g>
<g id="Group_46">
<path id="Vector_44" d="M42.2586 87.9184H42.1304C41.7456 87.7902 31.6123 84.1986 31.6123 78.9395C31.6123 78.8113 31.6123 78.683 31.7405 78.5547L37.7692 71.8847C37.8974 71.6281 37.8975 71.3716 38.0258 71.2433C39.1802 68.8062 43.5414 67.6518 48.9288 68.4214C50.3397 68.0366 51.7506 67.6517 53.1616 67.2669C54.9574 66.8821 56.2402 66.6256 57.1381 67.5235C57.2664 67.6517 57.3945 67.78 57.5228 67.9083C58.4207 67.78 59.3186 67.9083 60.0882 68.0366C60.9861 68.1648 62.0123 68.4214 62.3971 69.3193C62.5254 69.5758 62.5254 69.9606 62.5254 70.2171C63.6798 70.2171 64.706 70.7302 64.9625 71.6281C65.2191 72.2695 65.0907 72.9108 64.7059 73.4239L64.8343 73.5522C65.3474 74.0653 65.219 74.8349 65.219 74.8349C65.219 75.348 64.9625 76.6307 58.1642 77.4003C58.1642 78.1699 57.7794 79.0678 57.1381 79.4526C56.2402 79.9657 55.0857 79.4526 54.1878 79.0678C53.9313 78.9395 53.803 78.8112 53.5465 78.8112C53.2899 78.683 53.1617 78.5547 52.7769 78.4264C52.2638 78.1699 51.7507 78.0416 51.6224 78.0416C50.8528 77.7851 50.0831 78.0416 49.1853 78.2982C48.9287 78.4264 48.6722 78.4264 48.2874 78.5547C48.1592 78.5547 46.7482 78.9395 45.0807 78.9395L42.7717 87.4053C42.7717 87.5336 42.6435 87.6619 42.5153 87.7902C42.387 87.9184 42.2586 87.9184 42.2586 87.9184ZM32.7668 79.0678C33.0233 82.4028 38.9237 85.353 41.8739 86.5075L43.9262 78.9395L43.6697 78.683C43.5415 78.5547 43.5415 78.2982 43.6697 78.0416C43.798 77.7851 44.0544 77.7851 44.1827 77.7851H44.4393C46.1068 77.9133 47.9026 77.5285 47.9026 77.5285C48.1591 77.4003 48.4157 77.4003 48.8005 77.272C49.8267 77.0155 50.8527 76.7589 51.8789 77.0155C52.1354 77.0155 52.5202 77.272 53.1616 77.5285C53.6747 77.7851 53.803 77.9134 54.0596 78.0416C54.1879 78.1699 54.3162 78.1699 54.5727 78.2982C55.214 78.5547 56.1119 78.9395 56.4967 78.683C56.8816 78.4264 57.0097 77.7851 57.0097 77.272C57.0097 77.1437 57.0098 76.8872 57.1381 76.7589C57.2664 76.6307 57.3945 76.5024 57.5228 76.5024C62.5254 75.9893 63.9363 75.0914 64.0646 74.8349C64.0646 74.8349 64.0646 74.5783 63.9363 74.3218C63.8081 74.1935 63.6798 74.0653 63.4232 74.0653C63.1667 74.0653 62.9103 73.8087 62.9103 73.5522C62.9103 73.2956 63.0384 73.0391 63.295 73.0391C63.4232 73.0391 63.6798 72.9108 63.6798 72.7826C63.8081 72.526 63.9364 72.2695 63.8081 72.1412C63.6798 71.7564 62.782 71.3716 61.7558 71.6281C61.4993 71.6281 61.2427 71.6281 61.1144 71.3716C60.9862 71.2433 60.9862 70.9868 61.1144 70.7302C61.1144 70.7302 61.371 70.2172 61.2427 69.9606C61.1144 69.5758 60.4731 69.4475 59.7035 69.3193C58.9339 69.191 58.036 69.191 57.1381 69.3193C56.8816 69.3193 56.625 69.191 56.4967 68.9344C56.3685 68.8062 56.3684 68.6779 56.2401 68.5496C55.727 68.1648 54.8292 68.2931 53.29 68.5496C51.879 68.8062 50.468 69.191 49.057 69.7041C48.9287 69.7041 48.9288 69.7041 48.8005 69.7041C44.0545 68.9345 39.9498 69.8323 38.9236 71.8847C38.7954 72.1412 38.7954 72.2695 38.6672 72.526C38.6672 72.6543 38.5389 72.6543 38.5389 72.7826L32.7668 79.0678Z" fill="#11040E"/>
</g>
</g>
<g id="Group_47">
<g id="Group_48">
<path id="Vector_45" d="M63.166 60.5974H54.0588H52.1348H49.6976H48.03H38.6664C38.6664 60.5974 38.1532 71.2438 48.03 73.9375C48.9279 74.194 49.9542 74.3223 50.9803 74.3223C52.0065 74.3223 53.0327 74.194 54.0588 73.9375C54.0588 73.9375 54.0588 73.9375 54.1871 73.9375C63.6791 71.1156 63.166 60.5974 63.166 60.5974Z" fill="#0F79FF"/>
</g>
<g id="Group_49">
<g id="Group_50">
<path id="Vector_46" d="M61.372 70.218C61.1155 70.218 60.859 70.218 60.6024 70.218C60.0893 70.218 59.7046 69.8332 59.7046 69.3201C59.7046 68.807 60.0893 68.4222 60.6024 68.4222C63.8092 68.5505 66.6311 67.6526 67.529 66.1134C68.2987 64.9589 68.1704 63.9328 68.0422 63.9328C67.9139 63.4197 67.7855 63.1631 67.6573 63.1631C67.1442 62.6501 65.4767 62.7783 63.2961 64.061C62.9113 64.3176 62.2699 64.1893 62.0134 63.8045C61.7568 63.4197 61.8852 62.7783 62.27 62.5218C64.9637 60.8543 67.6573 60.5977 68.94 61.8804C69.5813 62.5218 69.7096 63.2914 69.7096 63.6762C69.7096 63.8045 69.9661 65.3437 68.94 67.1395C67.9138 69.0636 64.9636 70.218 61.372 70.218Z" fill="#0F79FF"/>
</g>
</g>
<g id="Group_51">
<path id="Vector_47" d="M50.9806 75.2202C49.8262 75.2202 48.8 75.0919 47.9021 74.8354C37.5122 72.0134 37.8971 60.7257 37.8971 60.5974C37.8971 60.0843 38.2818 59.8278 38.7949 59.8278H63.2945C63.8076 59.8278 64.0642 60.2126 64.1925 60.5974C64.1925 60.7257 64.7054 71.7569 54.4438 74.7071C53.1611 75.0919 52.135 75.2202 50.9806 75.2202ZM39.5645 61.4953C39.6928 63.9324 40.5907 70.9873 48.2869 73.1679C49.9545 73.6809 52.135 73.6809 53.8025 73.1679C61.3704 70.9873 62.2684 64.0607 62.3967 61.6236H39.5645V61.4953Z" fill="#0F79FF"/>
</g>
<g id="Group_52">
<path id="Vector_48" d="M63.4236 60.5971C63.4236 62.0081 57.908 63.2908 50.9815 63.2908C44.0549 63.2908 38.5393 62.1364 38.5393 60.5971C38.5393 59.1862 44.0549 57.9034 50.9815 57.9034C57.908 57.9034 63.4236 59.1862 63.4236 60.5971Z" fill="white"/>
</g>
<g id="Group_53">
<path id="Vector_49" d="M50.9816 63.804C46.4922 63.804 38.0264 63.1627 38.0264 60.5973C38.0264 58.0319 46.4922 57.3905 50.9816 57.3905C55.4711 57.3905 63.9369 58.0319 63.9369 60.5973C63.9369 63.1627 55.4711 63.804 50.9816 63.804ZM50.9816 58.5449C43.1571 58.5449 39.1808 59.9559 39.1808 60.5973C39.1808 61.2386 43.2854 62.6496 50.9816 62.6496C58.6778 62.6496 62.7824 61.2386 62.7824 60.5973C62.7824 60.0842 58.6778 58.5449 50.9816 58.5449Z" fill="#11040E"/>
</g>
</g>
<g id="Group_54">
<path id="Vector_50" d="M9.67806 97.9238C17.3743 90.4842 24.9421 82.9162 32.6383 75.4766C32.8948 76.631 33.921 82.4031 38.9236 85.6099C40.8476 86.7643 42.6434 87.2774 44.0544 87.5339C41.1042 93.3061 38.0257 97.539 35.4603 100.618C28.7903 108.827 24.9421 109.981 23.4029 110.238C20.9658 110.879 18.7852 110.623 17.6307 110.494C14.6805 110.238 10.5759 109.853 8.52359 106.774C8.26705 106.518 8.13875 106.261 8.01048 105.877C6.85605 103.311 7.49746 99.9762 9.67806 97.9238Z" fill="white"/>
</g>
<g id="Group_55">
<path id="Vector_51" d="M19.9399 111.264C19.042 111.264 18.2723 111.136 17.7592 111.136C14.6807 110.88 10.4477 110.495 8.26715 107.16C8.01061 106.903 7.88247 106.518 7.7542 106.262C6.34323 103.44 6.98448 99.8483 9.42162 97.5395L32.382 75.0922C32.5103 74.9639 32.7669 74.8356 32.8951 74.9639C33.1517 75.0922 33.2798 75.2204 33.2798 75.3487C33.5364 77.2728 34.8192 82.147 39.3086 85.0973C40.7196 85.9951 42.387 86.6365 44.1828 86.893C44.3111 86.893 44.5677 87.0213 44.5677 87.1496C44.6959 87.2778 44.6959 87.5344 44.5677 87.6627C42.1305 92.4087 39.3087 96.7698 35.9736 100.874C31.3559 106.647 27.1229 109.853 23.6596 110.751C22.2486 111.136 20.966 111.264 19.9399 111.264ZM32.382 76.6314L10.1912 98.3091C8.13888 100.361 7.62584 103.312 8.78027 105.749C8.90854 106.005 9.03684 106.262 9.29338 106.518C11.2174 109.34 15.1939 109.725 18.0158 109.982C19.042 110.11 21.0942 110.238 23.5313 109.725C26.7381 108.956 30.7144 105.749 35.2039 100.233C38.2824 96.5133 40.9761 92.2804 43.285 87.9192C41.6175 87.5344 40.0782 86.893 38.7955 85.9951C34.4343 83.4297 32.8951 79.0685 32.382 76.6314Z" fill="#11040E"/>
</g>
<g id="Group_56">
<path id="Vector_52" d="M63.4238 61.7516C63.6804 59.9558 68.4264 58.2883 71.5049 59.6992C72.7876 60.3406 74.7116 62.0081 74.8399 62.0081L74.1986 60.4689C74.1986 60.4689 67.7851 54.6967 69.3244 52.5161C70.8636 50.3355 77.1488 58.5448 77.1488 58.5448L77.5335 58.16C77.5335 58.16 72.2745 53.5423 74.1986 52.1313C75.9943 50.7203 79.2012 55.2098 80.9969 58.16L81.6383 57.6469C80.8687 56.749 80.3555 56.1077 79.9707 55.4663C78.3032 53.0292 78.4315 52.2596 78.4315 51.8748C78.4315 51.6182 78.6881 50.9769 79.0729 50.8486C80.2273 50.3355 83.6906 54.0554 84.9733 58.0317C85.9994 61.1102 80.8687 75.4765 80.8687 75.4765H69.196C69.5808 72.6545 69.7091 70.2174 69.7091 68.4216C69.7091 64.317 69.3243 63.5473 68.8113 63.1625C67.4003 62.3929 65.4762 64.317 64.0652 63.2908C63.6804 63.0343 63.4238 62.3929 63.4238 61.7516Z" fill="white"/>
</g>
<g id="Group_57">
<path id="Vector_53" d="M79.2004 69.3196C78.9439 69.3196 78.6873 69.1913 78.6873 68.9348C77.5329 65.3432 71.376 67.2673 71.2477 67.3956C70.9912 67.5238 70.6062 67.2673 70.478 67.0108C70.3497 66.7542 70.6063 66.3694 70.8628 66.2411C71.1194 66.1129 78.1743 63.9323 79.7135 68.55C79.8418 68.8065 79.5852 69.1913 79.3286 69.3196C79.3286 69.3196 79.3287 69.3196 79.2004 69.3196Z" fill="#11040E"/>
</g>
<g id="Group_58">
<path id="Vector_54" d="M68.2971 75.6047L68.8102 84.7119C68.8102 84.7119 74.7107 86.2512 82.2786 83.0444L80.611 72.9111C80.611 72.7828 69.3233 74.322 68.2971 75.6047Z" fill="white"/>
</g>
<g id="Group_59">
<path id="Vector_55" d="M72.5306 85.6099C70.2217 85.6099 68.8107 85.2251 68.6825 85.2251C68.4259 85.2251 68.2976 84.9686 68.2976 84.712L67.7845 75.6048V75.4766C65.7322 73.9373 65.4756 70.6023 65.2191 68.6783C65.2191 68.2934 65.2191 67.9086 65.0908 67.6521C65.0908 67.3956 64.8343 66.8825 64.5777 66.4977C64.1929 65.728 63.6798 64.8302 63.9364 63.9323C63.9364 63.9323 63.8081 63.9323 63.8081 63.804C63.2951 63.4192 62.782 62.5213 62.9103 61.7517C63.0386 60.982 63.6799 60.2124 64.8344 59.6993C66.6302 58.8015 69.5802 58.2884 71.7608 59.3145C72.0174 59.4428 72.1456 59.5711 72.4022 59.6993C70.4781 57.7753 67.528 54.1837 68.8107 52.2597C69.0673 51.8749 69.4521 51.6183 69.9652 51.6183C70.8631 51.6183 72.0175 52.3879 73.1719 53.5424C73.1719 53.4141 73.1719 53.1576 73.1719 53.0293C73.1719 52.5162 73.4285 52.1314 73.8133 51.7466C74.1981 51.3618 74.8394 51.2335 75.3525 51.3618C76.2504 51.4901 77.1482 52.2597 78.0461 53.1576C77.9178 52.6445 77.9178 52.2597 78.0461 51.8749C78.1744 51.6183 78.3027 50.7204 78.9441 50.4639C79.3289 50.3356 79.7137 50.3356 80.2268 50.5922C81.8943 51.3618 84.4596 54.5685 85.6141 58.0318C86.6402 60.982 82.9204 71.885 81.6377 75.4766L82.9204 82.9162C82.9204 83.1728 82.7921 83.4293 82.5356 83.5576C78.5592 85.2251 74.9677 85.6099 72.5306 85.6099ZM69.4521 84.1989C70.863 84.4555 75.7373 85.0968 81.6377 82.6597L80.4833 75.4766C80.4833 75.3483 80.4833 75.22 80.4833 75.22C82.279 69.9609 85.2292 60.5972 84.4596 58.4166C83.0486 54.4403 79.9702 51.4901 79.3288 51.6183C79.3288 51.6183 79.2006 51.7466 79.0723 52.2597C78.9441 52.7728 79.4571 53.7989 80.4833 55.3381C80.9963 56.1078 81.5094 56.7491 82.0224 57.3905C82.1507 57.5187 82.1508 57.647 82.1508 57.9036C82.1508 58.0318 82.0225 58.1601 81.8942 58.2884L81.2529 58.8015C81.1246 58.9297 80.9964 58.9297 80.8681 58.9297C80.7399 58.9297 80.6115 58.8015 80.4833 58.6732C78.4309 55.0816 76.3787 52.901 75.2242 52.6445C74.9677 52.6445 74.8394 52.6445 74.5829 52.7727C74.4546 52.901 74.4546 53.0293 74.4546 53.1576C74.4546 54.312 76.6351 56.7491 78.0461 57.9036C78.1744 58.0318 78.1745 58.1601 78.3027 58.2884C78.3027 58.4166 78.3026 58.5449 78.1743 58.6732L77.7896 59.058C77.6614 59.1863 77.533 59.1863 77.4048 59.1863C77.2765 59.1863 77.1483 59.058 77.02 58.9297C75.096 56.3643 71.6326 52.6445 70.3499 52.6445C70.2216 52.6445 70.2217 52.6445 70.0934 52.7727C69.1955 54.0554 72.4022 57.7753 74.8393 59.9559C74.8393 59.9559 74.9676 60.0841 74.9676 60.2124L75.6089 61.7517C75.7372 61.8799 75.609 62.1365 75.4807 62.393C75.3524 62.5213 75.2243 62.6496 75.096 62.6496C74.8394 62.6496 74.7112 62.6495 74.4546 62.393C73.9416 62.0082 72.5305 60.8538 71.5044 60.3407C69.7086 59.4428 67.1432 59.8276 65.604 60.7255C64.8343 61.1103 64.3213 61.6234 64.3213 62.0082C64.3213 62.2648 64.4496 62.7778 64.8344 63.0344C64.9626 63.1626 65.0908 63.1626 65.2191 63.1626C65.3474 63.1626 65.604 63.2909 65.604 63.5475C65.7322 63.6757 65.604 63.9323 65.604 64.0605C65.3474 64.4453 65.604 65.215 66.1171 66.1129C66.3736 66.6259 66.6302 67.139 66.7584 67.5238C66.7584 67.7804 66.8867 68.1652 66.8867 68.6783C67.0149 70.6023 67.2715 74.0656 69.3238 74.9635C69.5804 75.0918 69.7085 75.22 69.7085 75.4766C69.7085 75.7331 69.5803 75.8614 69.4521 75.9897V84.1989ZM69.4521 64.5736C69.3238 64.5736 69.1955 64.4453 69.0672 64.3171C68.8107 64.0605 68.4259 63.6757 68.1694 63.5475C67.9128 63.4192 67.7845 63.1626 67.9127 62.9061C68.041 62.6496 68.2975 62.5213 68.5541 62.5213C68.8106 62.5213 69.0672 62.6496 69.1954 62.7778C69.5802 63.0344 69.8369 63.2909 69.9652 63.804C70.0934 64.0605 69.9651 64.3171 69.7085 64.4453C69.5803 64.4453 69.5803 64.5736 69.4521 64.5736Z" fill="#11040E"/>
</g>
<g id="Group_60">
<path id="Vector_56" d="M64.834 83.301C64.834 83.301 73.8128 110.494 82.0221 111.264C90.3596 112.034 98.0558 107.544 82.6634 80.3508C82.6634 80.3508 77.4045 86.7643 64.834 83.301Z" fill="white"/>
</g>
<g id="Group_61">
<path id="Vector_57" d="M83.6902 111.905C83.1771 111.905 82.5357 111.905 82.0226 111.777C73.4285 110.879 64.7063 84.5838 64.3214 83.4293C64.1932 83.1728 64.3214 83.0445 64.4497 82.9162C64.578 82.788 64.8345 82.6597 64.9628 82.788C77.0202 86.123 82.151 80.0943 82.2793 79.966C82.4075 79.8378 82.5358 79.7095 82.7924 79.7095C82.9207 79.7095 83.1771 79.8378 83.1771 79.966C91.2581 94.3323 93.9518 104.081 90.8733 108.699C89.4623 110.879 87.0252 111.905 83.6902 111.905ZM65.7324 84.0707C67.3999 88.9449 75.2244 109.981 82.151 110.623C85.9991 111.007 88.5645 110.11 89.9755 108.057C91.8995 105.107 92.156 98.0521 82.664 81.1205C80.8682 82.788 75.7375 86.5078 65.7324 84.0707Z" fill="#11040E"/>
</g>
<g id="Group_62">
<path id="Vector_58" d="M70.7342 102.798C70.6059 102.798 70.3493 102.67 70.2211 102.541C70.2211 102.413 65.2185 94.3321 62.6531 87.9186C62.5248 87.662 62.6532 87.2772 62.9097 87.149C63.1663 87.0207 63.551 87.149 63.6793 87.4055C66.1164 93.6907 71.1189 101.772 71.1189 101.9C71.2472 102.157 71.2472 102.541 70.9906 102.67C70.8624 102.798 70.8624 102.798 70.7342 102.798Z" fill="#11040E"/>
</g>
<g id="Group_63">
<path id="Vector_59" d="M39.1815 105.492C39.0532 105.492 38.7967 105.492 38.6684 105.492C38.4118 105.492 38.1553 105.236 38.1553 104.851C38.1553 104.594 38.4118 104.338 38.7966 104.338C38.9249 104.338 39.1815 104.338 39.3097 104.338C49.4431 104.338 59.3198 92.7933 59.4481 92.665C59.7046 92.4085 59.9611 92.4085 60.2177 92.5368C60.4742 92.7933 60.4743 93.0499 60.3461 93.3064C59.7047 93.9477 49.9562 105.492 39.1815 105.492Z" fill="#11040E"/>
</g>
<g id="Group_64">
<path id="Vector_60" d="M44.9521 99.8477C44.0542 99.8477 43.1562 99.7194 42.13 99.5911C41.8735 99.4629 41.617 99.2063 41.7453 98.9498C41.8736 98.6932 42.1301 98.4367 42.3867 98.565C48.6719 99.976 52.3916 95.743 52.5199 95.6148C52.7764 95.3582 53.0331 95.3582 53.2896 95.6148C53.5462 95.8713 53.5461 96.1278 53.4179 96.3844C53.2896 96.3844 50.2111 99.8477 44.9521 99.8477Z" fill="#11040E"/>
</g>
</g>
</svg>
