<svg width="31" height="31" viewBox="0 0 31 31" fill="none" xmlns="http://www.w3.org/2000/svg">
<g id="checklist">
<rect x="0.273438" y="0.274902" width="30" height="30" rx="9" fill="#0085FF"/>
<path id="Vector" fill-rule="evenodd" clip-rule="evenodd" d="M7.25228 19.3081C7.25228 18.9284 7.56008 18.6206 7.93978 18.6206H11.6064C11.9861 18.6206 12.2939 18.9284 12.2939 19.3081V22.9748C12.2939 23.3545 11.9861 23.6623 11.6064 23.6623H7.93978C7.56008 23.6623 7.25228 23.3545 7.25228 22.9748V19.3081ZM8.62728 19.9956V22.2873H10.9189V19.9956H8.62728ZM14.1273 6.9331C14.1273 6.55341 14.4351 6.2456 14.8148 6.2456H18.4814C18.8611 6.2456 19.1689 6.55341 19.1689 6.9331C19.1689 7.3128 18.8611 7.6206 18.4814 7.6206H14.8148C14.4351 7.6206 14.1273 7.3128 14.1273 6.9331ZM14.1273 13.3498C14.1273 12.9701 14.4351 12.6623 14.8148 12.6623H18.4814C18.8611 12.6623 19.1689 12.9701 19.1689 13.3498C19.1689 13.7295 18.8611 14.0373 18.4814 14.0373H14.8148C14.4351 14.0373 14.1273 13.7295 14.1273 13.3498ZM14.1273 19.7664C14.1273 19.3868 14.4351 19.0789 14.8148 19.0789H18.4814C18.8611 19.0789 19.1689 19.3868 19.1689 19.7664C19.1689 20.1461 18.8611 20.4539 18.4814 20.4539H14.8148C14.4351 20.4539 14.1273 20.1461 14.1273 19.7664ZM14.1273 9.6831C14.1273 9.30341 14.4351 8.9956 14.8148 8.9956H23.0648C23.4445 8.9956 23.7523 9.30341 23.7523 9.6831C23.7523 10.0628 23.4445 10.3706 23.0648 10.3706H14.8148C14.4351 10.3706 14.1273 10.0628 14.1273 9.6831ZM14.1273 16.0998C14.1273 15.7201 14.4351 15.4123 14.8148 15.4123H23.0648C23.4445 15.4123 23.7523 15.7201 23.7523 16.0998C23.7523 16.4795 23.4445 16.7873 23.0648 16.7873H14.8148C14.4351 16.7873 14.1273 16.4795 14.1273 16.0998ZM14.1273 22.5164C14.1273 22.1368 14.4351 21.8289 14.8148 21.8289H23.0648C23.4445 21.8289 23.7523 22.1368 23.7523 22.5164C23.7523 22.8961 23.4445 23.2039 23.0648 23.2039H14.8148C14.4351 23.2039 14.1273 22.8961 14.1273 22.5164ZM13.4676 5.07197C13.736 5.34045 13.736 5.77576 13.4676 6.04424L9.80091 9.71091C9.53243 9.97939 9.09712 9.97939 8.82864 9.71091L6.99531 7.87757C6.72682 7.60909 6.72682 7.17378 6.99531 6.9053C7.26379 6.63682 7.6991 6.63682 7.96758 6.9053L9.31478 8.2525L12.4953 5.07197C12.7638 4.80348 13.1991 4.80348 13.4676 5.07197ZM13.4676 11.4886C13.736 11.7571 13.736 12.1924 13.4676 12.4609L9.80091 16.1275C9.53243 16.396 9.09712 16.396 8.82864 16.1275L6.99531 14.2942C6.72682 14.0257 6.72682 13.5905 6.99531 13.322C7.26379 13.0535 7.6991 13.0535 7.96758 13.322L9.31478 14.6691L12.4953 11.4886C12.7638 11.2202 13.1991 11.2202 13.4676 11.4886Z" fill="white"/>
</g>
</svg>
