<svg width="45" height="89" viewBox="0 0 45 89" fill="none" xmlns="http://www.w3.org/2000/svg">
<g id="Group">
<g id="Group_2">
<g id="Vector" filter="url(#filter0_i_1_1071)">
<path d="M43.2877 25.62C41.6659 34.8106 34.5477 50.5788 23.1045 50.9392C12.0217 51.2095 3.01131 36.5226 1.38944 25.62C0.848817 22.106 -0.682937 11.9242 7.42641 5.16643C13.3733 0.210724 21.1222 0.0305176 22.3836 0.0305176C23.0143 0.0305176 33.2862 0.120621 39.6836 7.05862C45.4502 13.3659 44.0987 21.0247 43.2877 25.62Z" fill="#0F79FF"/>
</g>
</g>
<g id="Group_3">
<path id="Vector_2" d="M21.6626 50.8491L20.1309 57.5168C21.122 58.2376 21.7527 58.2376 22.1132 58.1475C22.6538 57.9673 22.9241 57.5168 23.4647 57.5168C23.9152 57.5168 24.0054 57.7871 24.4559 57.8772C24.9965 57.9673 25.5371 57.697 25.8074 57.5168C24.9965 55.3543 24.1856 53.1918 23.3746 51.0293L21.6626 50.8491Z" fill="#0F79FF"/>
</g>
<g id="Group_4">
<path id="Vector_3" d="M23.5562 57.4265L22.565 53.3718L22.1145 58.0572L23.5562 57.4265Z" fill="#11040E"/>
</g>
<g id="Group_5">
<g id="Group_6">
<path id="Vector_4" d="M24.2743 24.7188C24.004 24.4485 23.0129 23.0068 23.8238 23.0068C24.3644 23.0068 24.5446 23.9078 24.5446 24.3584C24.5446 25.8 23.1931 26.5208 21.9316 26.6109C20.6702 26.7011 18.9582 26.2505 18.778 24.8089C18.5978 23.5474 19.4087 22.3761 20.58 21.9255C21.6613 21.475 22.9228 21.5651 24.0941 21.8354C25.716 22.1959 26.0764 23.2771 26.617 24.7188C27.0675 25.9802 27.428 27.3318 27.0675 28.6833C26.7071 30.0349 25.5358 31.2062 24.004 30.9359C21.5712 30.4854 20.0394 27.3318 19.1384 25.3495C18.3275 23.4573 17.4264 20.6641 18.8681 18.862C20.3098 16.9698 23.1931 17.6907 24.6347 19.2224C26.3467 21.0245 26.617 23.7276 26.8873 26.1604C27.1576 28.5031 27.428 30.9359 27.5181 33.2786C27.6082 34.2698 27.6082 35.351 27.1577 36.2521C26.5269 37.5135 25.0852 37.964 23.7337 37.4234C21.391 36.6125 19.9493 33.5489 19.1384 31.3865C18.2374 29.1339 17.7869 26.7011 17.7869 24.3584C17.7869 23.0969 17.9671 21.7453 19.1384 21.0245C20.1296 20.3938 21.391 20.2136 22.4723 20.1235C24.7249 19.9433 27.3379 19.673 29.4103 20.7542C33.555 22.7365 33.8253 28.5031 31.4826 31.9271C30.3113 33.639 28.329 35.0807 26.1665 34.9906C23.6436 34.9005 21.6613 33.0083 20.0394 31.3865C18.3275 29.6745 16.7056 27.7823 15.354 25.7099C14.0926 23.7276 13.0114 21.1146 14.0926 18.7719C15.7145 15.0777 20.9405 14.3568 24.4546 15.348C26.6171 15.9787 28.5993 17.2401 29.5904 19.3125C30.6717 21.475 30.6717 24.088 30.4915 26.4307C30.3113 28.8635 29.7706 31.2062 28.6894 33.4588C27.7884 35.351 26.2566 38.0541 23.9139 38.3244C21.6613 38.5948 19.4988 35.8015 18.3275 34.0896C17.066 32.2875 16.0749 30.2151 15.4442 28.1427C14.0926 23.5474 13.8223 18.3214 14.5431 13.636C14.8134 11.6537 15.5343 9.58132 17.066 8.22977C18.8681 6.6079 21.4811 6.51779 23.7337 6.51779C24.2743 6.51779 24.905 6.51779 25.5358 6.6079C26.3467 6.78811 26.7972 7.50894 27.0675 8.22977C27.5181 9.40112 27.7884 10.7527 28.1488 11.924C28.8696 14.3568 29.5003 16.7896 30.041 19.2224C30.5816 21.8354 31.0321 24.5386 31.1222 27.2417C31.2123 29.6745 31.2123 32.1974 30.4014 34.5401C29.5905 36.7927 27.7884 38.8651 25.2655 39.2255C23.103 39.4958 21.4811 37.6036 19.3186 37.6036C16.3452 37.6937 14.7233 41.6583 17.066 43.5505C18.4176 44.6317 20.1295 44.7218 21.6613 44.4515C22.0217 44.3614 21.8415 43.8208 21.4811 43.9109C19.9493 44.2713 18.0571 44.0911 16.9759 42.8296C15.8045 41.4781 16.5254 39.4958 17.8769 38.5948C19.4087 37.6036 20.9405 38.6849 22.3821 39.2255C23.4634 39.676 24.4545 39.8562 25.5358 39.676C31.4826 38.5948 31.753 31.1161 31.4826 26.4307C31.3024 23.2771 30.6717 20.1235 29.9509 17.0599C29.5905 15.4381 29.1399 13.8162 28.6894 12.2844C28.2389 10.7527 27.9686 9.22091 27.3378 7.77925C26.3467 5.43655 23.1931 5.88707 21.1207 6.06728C18.8681 6.24748 16.7957 7.14852 15.4442 9.0407C14.0926 11.023 13.7322 13.636 13.6421 15.9787C13.4619 19.0422 13.552 22.1058 14.0025 25.0792C14.453 27.7823 15.2639 30.4854 16.7056 32.9182C17.8769 34.9906 19.7691 37.5135 22.0217 38.5948C24.0941 39.5859 26.0764 38.1442 27.3378 36.5224C29.0498 34.2698 30.1311 31.4766 30.5816 28.6833C31.3925 23.8177 31.1222 17.7808 26.0764 15.4381C22.3822 13.7261 16.8858 13.9063 14.1827 17.3303C10.6687 21.8354 15.6244 27.6922 18.6879 30.9359C20.3999 32.738 22.4722 34.9005 25.0852 35.4411C27.2477 35.8916 29.3201 34.9906 30.8519 33.4588C34.0055 30.3953 34.6363 24.6287 31.3024 21.3849C29.4102 19.4927 26.617 19.2224 24.0941 19.4026C22.1118 19.4927 19.4087 19.4927 18.0572 21.2047C16.5254 23.0969 17.2463 26.4307 17.6968 28.5932C18.3275 31.2963 19.4087 34.0896 21.2108 36.2521C22.5623 37.7838 24.9952 39.0453 26.7972 37.5135C28.5092 36.0718 28.1488 33.5489 27.9686 31.5667C27.6983 28.5031 27.6081 25.2594 26.8873 22.286C26.3467 20.1235 25.1754 18.1412 23.0129 17.4204C21.1207 16.7896 19.0483 17.2402 18.1473 19.1323C17.1561 21.2047 17.8769 23.6375 18.778 25.6198C19.679 27.6922 21.3009 30.6656 23.6436 31.3865C25.8061 32.0172 27.518 30.3052 27.7884 28.2328C27.9686 26.9714 27.6082 25.7099 27.1577 24.6287C26.7973 23.6375 26.4368 22.3761 25.4457 21.8354C23.8238 20.8443 20.9405 20.8443 19.4087 22.0157C18.0572 23.0969 17.6066 25.5297 19.2285 26.6109C20.7603 27.6922 23.4634 27.512 24.6347 25.9802C25.5358 24.7188 25.1753 22.8266 23.7337 22.286C23.6436 22.286 23.4634 22.286 23.4634 22.3761C22.9228 23.3672 23.1931 24.4485 24.004 25.2594C24.1842 25.3495 24.5447 24.899 24.2743 24.7188Z" fill="#11040E"/>
</g>
</g>
<g id="Group_7">
<path id="Vector_5" d="M20.1305 119.057C19.9503 119.057 19.8602 118.967 19.7701 118.787C19.68 118.517 18.2383 112.93 23.194 98.0633C26.7081 87.431 24.7258 79.4118 23.104 72.9243C22.4732 70.4014 21.9326 68.2389 21.8425 66.2566C21.392 59.3186 22.2029 53.3718 22.2029 53.3718C22.2029 53.1916 22.3831 53.0114 22.6534 53.1015C22.8336 53.1015 23.0138 53.2817 22.9237 53.552C22.9237 53.6421 22.1128 59.4989 22.5633 66.3467C22.6534 68.2389 23.194 70.4014 23.8248 72.9243C25.4466 79.5019 27.519 87.6113 23.9149 98.5138C19.0492 113.111 20.4909 118.697 20.581 118.787C20.6711 118.967 20.4909 119.148 20.3107 119.238C20.2206 119.057 20.2206 119.057 20.1305 119.057Z" fill="#11040E"/>
</g>
</g>
<defs>
<filter id="filter0_i_1_1071" x="-0.0878906" y="0.0305176" width="44.1182" height="51.9124" filterUnits="userSpaceOnUse" color-interpolation-filters="sRGB">
<feFlood flood-opacity="0" result="BackgroundImageFix"/>
<feBlend mode="normal" in="SourceGraphic" in2="BackgroundImageFix" result="shape"/>
<feColorMatrix in="SourceAlpha" type="matrix" values="0 0 0 0 0 0 0 0 0 0 0 0 0 0 0 0 0 0 127 0" result="hardAlpha"/>
<feOffset dx="-1" dy="1"/>
<feGaussianBlur stdDeviation="2"/>
<feComposite in2="hardAlpha" operator="arithmetic" k2="-1" k3="1"/>
<feColorMatrix type="matrix" values="0 0 0 0 0.992729 0 0 0 0 0.815558 0 0 0 0 0.444227 0 0 0 1 0"/>
<feBlend mode="normal" in2="shape" result="effect1_innerShadow_1_1071"/>
</filter>
</defs>
</svg>
