<svg width="26" height="64" viewBox="0 0 26 64" fill="none" xmlns="http://www.w3.org/2000/svg">
<g id="Group" filter="url(#filter0_f_1_1083)">
<g id="Group_2">
<path id="Vector" d="M23.4224 15.1278C22.6103 19.7293 19.0464 27.6241 13.3171 27.8045C7.76816 27.9399 3.25683 20.5865 2.4448 15.1278C2.17412 13.3684 1.40721 8.2706 5.46738 4.88712C8.44484 2.4059 12.3246 2.31567 12.9561 2.31567C13.2719 2.31567 18.4148 2.36079 21.6178 5.83449C24.5051 8.9924 23.8284 12.827 23.4224 15.1278Z" fill="#0F79FF"/>
</g>
<g id="Group_3">
<path id="Vector_2" d="M12.5955 27.7592L11.8286 31.0975C12.3249 31.4584 12.6407 31.4584 12.8211 31.4133C13.0918 31.3231 13.2271 31.0975 13.4978 31.0975C13.7234 31.0975 13.7685 31.2329 13.9941 31.278C14.2647 31.3231 14.5354 31.1877 14.6708 31.0975C14.2647 30.0148 13.8587 28.9321 13.4527 27.8494L12.5955 27.7592Z" fill="#0F79FF"/>
</g>
<g id="Group_4">
<path id="Vector_3" d="M13.5431 31.0525L13.0469 29.0225L12.8213 31.3683L13.5431 31.0525Z" fill="#11040E"/>
</g>
<g id="Group_5">
<g id="Group_6">
<path id="Vector_4" d="M13.9036 14.6762C13.7683 14.5408 13.272 13.819 13.6781 13.819C13.9487 13.819 14.039 14.2701 14.039 14.4957C14.039 15.2175 13.3623 15.5784 12.7307 15.6235C12.0991 15.6686 11.2419 15.4431 11.1517 14.7213C11.0615 14.0897 11.4675 13.5032 12.054 13.2777C12.5953 13.0521 13.2269 13.0972 13.8134 13.2325C14.6254 13.413 14.8059 13.9544 15.0766 14.6762C15.3021 15.3077 15.4826 15.9844 15.3021 16.6611C15.1217 17.3378 14.5352 17.9243 13.7683 17.789C12.5502 17.5634 11.7833 15.9844 11.3322 14.992C10.9262 14.0446 10.475 12.6461 11.1968 11.7438C11.9187 10.7964 13.3623 11.1573 14.0841 11.9243C14.9412 12.8265 15.0766 14.1799 15.2119 15.398C15.3472 16.5709 15.4826 17.789 15.5277 18.9619C15.5728 19.4581 15.5728 19.9995 15.3472 20.4506C15.0315 21.0822 14.3096 21.3078 13.6329 21.0371C12.46 20.6311 11.7382 19.0972 11.3322 18.0145C10.881 16.8867 10.6555 15.6686 10.6555 14.4957C10.6555 13.8641 10.7457 13.1874 11.3322 12.8265C11.8284 12.5107 12.46 12.4205 13.0014 12.3754C14.1292 12.2852 15.4375 12.1498 16.4751 12.6912C18.5503 13.6837 18.6856 16.5709 17.5127 18.2852C16.9262 19.1424 15.9337 19.8642 14.851 19.819C13.5878 19.7739 12.5953 18.8266 11.7833 18.0145C10.9262 17.1574 10.1141 16.21 9.43742 15.1724C8.80584 14.1799 8.2645 12.8716 8.80586 11.6987C9.61789 9.84907 12.2344 9.48816 13.9939 9.98441C15.0766 10.3002 16.069 10.9318 16.5653 11.9694C17.1066 13.0521 17.1066 14.3604 17.0164 15.5333C16.9262 16.7514 16.6555 17.9243 16.1142 19.0521C15.663 19.9995 14.8961 21.3529 13.7232 21.4882C12.5953 21.6236 11.5126 20.2251 10.9261 19.3679C10.2946 18.4657 9.79835 17.4281 9.48255 16.3905C8.80586 14.0897 8.67052 11.4731 9.03142 9.12726C9.16676 8.13477 9.52766 7.09717 10.2946 6.42047C11.1968 5.60844 12.5051 5.56333 13.6329 5.56333C13.9036 5.56333 14.2194 5.56333 14.5352 5.60844C14.9412 5.69866 15.1668 6.05957 15.3021 6.42047C15.5277 7.00694 15.663 7.68364 15.8435 8.27011C16.2044 9.48816 16.5202 10.7062 16.7908 11.9243C17.0615 13.2325 17.2871 14.5859 17.3322 15.9393C17.3773 17.1574 17.3773 18.4205 16.9713 19.5935C16.5653 20.7213 15.663 21.7589 14.3999 21.9394C13.3171 22.0747 12.5051 21.1273 11.4224 21.1273C9.93368 21.1724 9.12164 23.1574 10.2946 24.1048C10.9713 24.6461 11.8284 24.6913 12.5953 24.5559C12.7758 24.5108 12.6856 24.2401 12.5051 24.2852C11.7382 24.4657 10.7908 24.3755 10.2495 23.7439C9.66298 23.0672 10.0239 22.0747 10.7006 21.6236C11.4675 21.1273 12.2344 21.6687 12.9562 21.9394C13.4976 22.1649 13.9938 22.2552 14.5352 22.1649C17.5127 21.6236 17.648 17.8792 17.5127 15.5333C17.4224 13.9544 17.1066 12.3754 16.7457 10.8416C16.5653 10.0295 16.3397 9.21748 16.1142 8.45056C15.8886 7.68364 15.7532 6.91672 15.4375 6.19491C14.9412 5.02197 13.3623 5.24753 12.3247 5.33776C11.1968 5.42799 10.1592 5.87912 9.48255 6.82649C8.80586 7.81898 8.62541 9.12726 8.58029 10.3002C8.49007 11.834 8.53516 13.3679 8.76073 14.8566C8.98629 16.21 9.39231 17.5634 10.1141 18.7815C10.7006 19.819 11.648 21.0822 12.7758 21.6236C13.8134 22.1198 14.8059 21.398 15.4375 20.586C16.2946 19.4581 16.836 18.0596 17.0615 16.6611C17.4676 14.225 17.3322 11.2025 14.8059 10.0295C12.9563 9.17237 10.2044 9.2626 8.85096 10.9769C7.09155 13.2325 9.57277 16.1649 11.1066 17.789C11.9638 18.6912 13.0013 19.7739 14.3096 20.0446C15.3923 20.2702 16.43 19.819 17.1969 19.0521C18.7758 17.5183 19.0916 14.6311 17.4224 13.007C16.4751 12.0596 15.0766 11.9243 13.8134 12.0145C12.8209 12.0596 11.4675 12.0596 10.7908 12.9168C10.0239 13.8641 10.3848 15.5333 10.6104 16.616C10.9262 17.9694 11.4675 19.3679 12.3698 20.4506C13.0465 21.2176 14.2645 21.8491 15.1668 21.0822C16.0239 20.3604 15.8435 19.0972 15.7533 18.1048C15.6179 16.5709 15.5728 14.9468 15.2119 13.4581C14.9412 12.3754 14.3547 11.3829 13.272 11.022C12.3247 10.7062 11.2871 10.9318 10.8359 11.8792C10.3397 12.9168 10.7006 14.1348 11.1517 15.1273C11.6028 16.1649 12.4149 17.6536 13.5878 18.0145C14.6705 18.3303 15.5277 17.4732 15.663 16.4356C15.7532 15.804 15.5728 15.1724 15.3472 14.631C15.1668 14.1348 14.9863 13.5032 14.4901 13.2325C13.6781 12.7363 12.2344 12.7363 11.4675 13.3228C10.7908 13.8641 10.5652 15.0822 11.3773 15.6235C12.1442 16.1649 13.4976 16.0747 14.0841 15.3077C14.5352 14.6762 14.3547 13.7288 13.6329 13.4581C13.5878 13.4581 13.4976 13.4581 13.4976 13.5032C13.2269 13.9995 13.3623 14.5408 13.7683 14.9468C13.8585 14.992 14.039 14.7664 13.9036 14.6762Z" fill="#11040E"/>
</g>
</g>
<g id="Group_7">
<path id="Vector_5" d="M11.8282 61.9098C11.738 61.9098 11.6929 61.8646 11.6478 61.7744C11.6027 61.6391 10.8809 58.8421 13.3621 51.3984C15.1215 46.0751 14.129 42.06 13.317 38.8119C13.0012 37.5487 12.7305 36.466 12.6854 35.4735C12.4598 31.9998 12.8659 29.0223 12.8659 29.0223C12.8659 28.9321 12.9561 28.8419 13.0914 28.887C13.1817 28.887 13.2719 28.9772 13.2268 29.1126C13.2268 29.1577 12.8207 32.09 13.0463 35.5186C13.0914 36.466 13.3621 37.5487 13.6779 38.8119C14.4899 42.1051 15.5275 46.1653 13.723 51.624C11.2869 58.9323 12.0087 61.7293 12.0538 61.7744C12.0989 61.8646 12.0087 61.9549 11.9185 62C11.8734 61.9098 11.8733 61.9098 11.8282 61.9098Z" fill="#11040E"/>
</g>
</g>
<defs>
<filter id="filter0_f_1_1083" x="0.205811" y="0.315674" width="25.5884" height="63.6843" filterUnits="userSpaceOnUse" color-interpolation-filters="sRGB">
<feFlood flood-opacity="0" result="BackgroundImageFix"/>
<feBlend mode="normal" in="SourceGraphic" in2="BackgroundImageFix" result="shape"/>
<feGaussianBlur stdDeviation="1" result="effect1_foregroundBlur_1_1083"/>
</filter>
</defs>
</svg>
