<svg width="23" height="23" viewBox="0 0 23 23" fill="none" xmlns="http://www.w3.org/2000/svg">
<path id="Vector" d="M0.914848 11.9459C0.912618 11.5083 0.994342 11.0744 1.15559 10.6676C1.62537 9.49942 2.62117 8.71157 3.62719 8.03407C3.7705 7.93758 3.91539 7.84347 4.06181 7.75177C3.8281 4.77823 4.31257 2.78792 5.53548 1.6743C5.88077 1.3578 6.28557 1.11315 6.72632 0.954587C7.16706 0.796028 7.63495 0.726731 8.10273 0.750733C9.17538 0.816502 10.1786 1.30354 10.8937 2.10573C12.8324 4.25243 12.9863 7.69617 12.4357 10.5306C15.2706 9.98028 18.7143 10.1343 20.8608 12.0731C21.6629 12.7882 22.1499 13.7913 22.2156 14.8638C22.2395 15.3315 22.1702 15.7992 22.0118 16.2398C21.8533 16.6804 21.6088 17.0852 21.2925 17.4304C20.1782 18.6538 18.1877 19.137 15.2148 18.9043C15.1206 19.0543 15.0273 19.1983 14.9323 19.3389C14.2548 20.3452 13.4665 21.3408 12.299 21.8105C11.179 22.2611 9.80522 22.0705 8.71419 21.3126C7.01256 20.1315 6.64824 17.9722 6.89964 16.0667C4.99305 16.3179 2.83443 15.9531 1.65328 14.2519C1.17933 13.5757 0.921825 12.7716 0.914848 11.9459Z" fill="#815800"/>
</svg>
