<svg width="19" height="19" viewBox="0 0 19 19" fill="none" xmlns="http://www.w3.org/2000/svg">
<path id="Vector" d="M16.3785 8.92736H15.189V6.00548C15.189 5.54052 15.001 5.0946 14.6664 4.76583C14.3318 4.43705 13.878 4.25235 13.4048 4.25235L10.431 4.25235V3.0836C10.431 2.46365 10.1804 1.8691 9.73424 1.43073C9.28809 0.992366 8.68298 0.746094 8.05203 0.746094C7.42108 0.746094 6.81598 0.992366 6.36983 1.43073C5.92368 1.8691 5.67304 2.46365 5.67304 3.0836V4.25235H2.69929C2.22608 4.25235 1.77224 4.43705 1.43763 4.76583C1.10302 5.0946 0.915039 5.54052 0.915039 6.00548L0.915039 9.51173C0.915039 9.66672 0.9777 9.81536 1.08924 9.92495C1.20077 10.0345 1.35205 10.0961 1.50979 10.0961H3.29404C3.60951 10.0961 3.91207 10.2192 4.13514 10.4384C4.35821 10.6576 4.48354 10.9549 4.48354 11.2649C4.48354 11.5748 4.35821 11.8721 4.13514 12.0913C3.91207 12.3105 3.60951 12.4336 3.29404 12.4336H1.50979C1.35205 12.4336 1.20077 12.4952 1.08924 12.6048C0.9777 12.7144 0.915039 12.863 0.915039 13.018L0.915039 16.5242C0.915039 16.9892 1.10302 17.4351 1.43763 17.7639C1.77224 18.0927 2.22608 18.2774 2.69929 18.2774H6.26778C6.42552 18.2774 6.5768 18.2158 6.68834 18.1062C6.79987 17.9966 6.86253 17.848 6.86253 17.693V15.9399C6.86253 15.6299 6.98786 15.3326 7.21093 15.1134C7.434 14.8943 7.73656 14.7711 8.05203 14.7711C8.36751 14.7711 8.67006 14.8943 8.89314 15.1134C9.11621 15.3326 9.24153 15.6299 9.24153 15.9399L9.24153 17.693C9.24153 17.848 9.30419 17.9966 9.41573 18.1062C9.52727 18.2158 9.67854 18.2774 9.83628 18.2774H13.4048C13.878 18.2774 14.3318 18.0927 14.6664 17.7639C15.001 17.4351 15.189 16.9892 15.189 16.5242V13.6024H16.3785C17.0095 13.6024 17.6146 13.3561 18.0607 12.9177C18.5069 12.4794 18.7575 11.8848 18.7575 11.2649C18.7575 10.6449 18.5069 10.0504 18.0607 9.612C17.6146 9.17363 17.0095 8.92736 16.3785 8.92736Z" fill="#A8A8A8"/>
</svg>
