<svg width="88" height="134" viewBox="0 0 88 134" fill="none" xmlns="http://www.w3.org/2000/svg">
<path d="M109.272 23.5114L101.809 27.8199L91.2258 9.48898C89.5417 6.57199 86.7472 4.45537 83.4571 3.60474C80.167 2.75411 76.6508 3.23916 73.6821 4.95318L55.0258 15.7244L50.7925 8.39204C48.547 4.50272 44.821 1.68055 40.4342 0.54638C36.0474 -0.58779 31.3591 0.0589428 27.4008 2.3443C23.4424 4.62966 20.5382 8.36645 19.327 12.7326C18.1159 17.0988 18.6969 21.7366 20.9424 25.626L25.1758 32.9583L6.51949 43.7295C3.55072 45.4435 1.37256 48.2461 0.464181 51.5207C-0.444201 54.7954 -0.00839233 58.2738 1.67573 61.1908L14.3757 83.1878C14.9371 84.1601 15.8686 84.8657 16.9653 85.1492C18.062 85.4328 19.2341 85.2711 20.2237 84.6997L31.4174 78.237C33.3966 77.0943 35.7407 76.771 37.9341 77.338C40.1275 77.9051 41.9905 79.3162 43.1133 81.2609C44.236 83.2055 44.5265 85.5245 43.921 87.7076C43.3154 89.8906 41.8633 91.759 39.8841 92.9017L28.6903 99.3644C27.7007 99.9358 26.9747 100.87 26.6719 101.961C26.3691 103.053 26.5144 104.213 27.0757 105.185L39.7757 127.182C41.4599 130.099 44.2543 132.216 47.5444 133.066C50.8345 133.917 54.3507 133.432 57.3195 131.718L79.707 118.792C80.6966 118.221 81.4227 117.287 81.7255 116.195C82.0282 115.104 81.883 113.944 81.3216 112.972L74.9716 101.973C73.8489 100.029 73.5583 97.7097 74.1639 95.5266C74.7695 93.3436 76.2216 91.4752 78.2008 90.3325C80.18 89.1898 82.5241 88.8664 84.7175 89.4335C86.9109 90.0006 88.7739 91.4117 89.8966 93.3563L96.2466 104.355C96.808 105.327 97.7395 106.033 98.8362 106.316C99.9329 106.6 101.105 106.438 102.095 105.867L124.482 92.9414C127.451 91.2273 129.629 88.4247 130.537 85.1501C131.446 81.8755 131.01 78.3971 129.326 75.4801L118.742 57.1492L126.205 52.8408C130.163 50.5554 133.068 46.8186 134.279 42.4525C135.49 38.0863 134.909 33.4484 132.663 29.5591C130.418 25.6698 126.692 22.8476 122.305 21.7135C117.918 20.5793 113.23 21.226 109.272 23.5114Z" fill="#E9C4FA" fill-opacity="0.16"/>
</svg>
