<svg width="89" height="115" viewBox="0 0 89 115" fill="none" xmlns="http://www.w3.org/2000/svg">
<path id="Vector" d="M55.5808 119.902C53.0483 119.237 50.6668 118.092 48.5655 116.531C42.5415 112.006 39.5301 105.031 37.1724 98.1673C36.8367 97.1897 36.5172 96.2065 36.214 95.2182C18.6661 91.9641 7.91315 86.0817 3.37075 77.2892C2.0762 74.8034 1.28908 72.0849 1.05523 69.292C0.821382 66.4991 1.14546 63.6876 2.00861 61.0212C4.04988 54.9235 8.41838 49.8797 14.1622 46.9889C29.5717 39.1081 49.7134 43.5522 65.2427 51.1235C66.4523 33.887 72.6756 14.222 87.205 4.81865C92.5801 1.29025 99.1318 0.0292282 105.433 1.31038C108.172 1.89632 110.768 3.02116 113.07 4.61949C115.371 6.21781 117.331 8.25772 118.837 10.6206C124.182 18.955 123.892 31.2078 117.943 48.0297C118.664 48.8063 119.352 49.5686 120.018 50.3356C124.784 55.8095 129.317 61.9073 130.225 69.3826C131.094 76.5536 127.865 84.1981 121.795 89.3302C112.334 97.3358 99.2896 96.0975 88.6658 91.6935C87.1649 103.102 81.7139 115.013 70.0524 119.205C65.4103 120.897 60.3639 121.14 55.5808 119.902Z" fill="#B1DEF9"/>
</svg>
