<svg width="79" height="100" viewBox="0 0 79 100" fill="none" xmlns="http://www.w3.org/2000/svg">
<path id="Vector" d="M109.354 24.2322L101.891 28.5407L91.3081 10.2098C89.624 7.29282 86.8295 5.17619 83.5394 4.32557C80.2493 3.47494 76.7331 3.95999 73.7643 5.67401L55.1081 16.4452L50.8747 9.11286C48.6292 5.22354 44.9033 2.40138 40.5165 1.26721C36.1297 0.133035 31.4414 0.779768 27.4831 3.06513C23.5247 5.35049 20.6205 9.08727 19.4093 13.4534C18.1981 17.8196 18.7792 22.4575 21.0247 26.3468L25.258 33.6791L6.60177 44.4503C3.633 46.1644 1.45484 48.9669 0.546456 52.2416C-0.361925 55.5162 0.0738831 58.9946 1.75801 61.9116L14.458 83.9086C15.0194 84.881 15.9509 85.5865 17.0476 85.87C18.1443 86.1536 19.3163 85.9919 20.3059 85.4206L31.4997 78.9578C33.4789 77.8152 35.823 77.4918 38.0164 78.0589C40.2098 78.626 42.0728 80.037 43.1955 81.9817C44.3183 83.9264 44.6088 86.2453 44.0032 88.4284C43.3976 90.6115 41.9455 92.4799 39.9664 93.6225L28.7726 100.085C27.783 100.657 27.0569 101.591 26.7542 102.682C26.4514 103.774 26.5966 104.933 27.158 105.906L39.858 127.903C41.5421 130.82 44.3366 132.936 47.6267 133.787C50.9168 134.638 54.433 134.153 57.4018 132.439L79.7893 119.513C80.7789 118.942 81.5049 118.008 81.8077 116.916C82.1105 115.824 81.9653 114.665 81.4039 113.693L75.0539 102.694C73.9311 100.749 73.6406 98.4305 74.2462 96.2475C74.8518 94.0644 76.3039 92.196 78.2831 91.0533C80.2622 89.9106 82.6064 89.5873 84.7998 90.1543C86.9932 90.7214 88.8561 92.1325 89.9789 94.0772L96.3289 105.076C96.8903 106.048 97.8218 106.754 98.9185 107.037C100.015 107.321 101.187 107.159 102.177 106.588L124.564 93.6622C127.533 91.9482 129.711 89.1456 130.62 85.871C131.528 82.5963 131.092 79.1179 129.408 76.2009L118.825 57.8701L126.287 53.5616C130.246 51.2762 133.15 47.5394 134.361 43.1733C135.572 38.8071 134.991 34.1692 132.746 30.2799C130.5 26.3906 126.774 23.5684 122.387 22.4343C118.001 21.3001 113.312 21.9468 109.354 24.2322Z" fill="#E9C4FA"/>
</svg>
